<?xml version="1.0" standalone="no"?>
<!DOCTYPE svg PUBLIC "-//W3C//DTD SVG 1.1//EN" "http://www.w3.org/Graphics/SVG/1.1/DTD/svg11.dtd">
<svg xmlns="http://www.w3.org/2000/svg">
<metadata>Generated by Fontastic.me</metadata>
<defs>
<font id="v6-fonts" horiz-adv-x="512">
<font-face font-family="v6-fonts" units-per-em="512" ascent="480" descent="-32"/>
<missing-glyph horiz-adv-x="512" />

<glyph glyph-name="popularity-index" unicode="&#97;" d="M380 304c1 5 0 9-2 14-5 6-13 10-21 9l-74-13c-11-2-19-12-16-22 2-11 12-18 22-16l24 4-51-64-36 33c-8 6-19 6-27-1l-54-55c-8-8-8-20 0-28 3-3 9-6 13-6 5 0 10 3 14 6l42 41 38-34c5-4 9-6 15-5 5 0 10 4 13 7l62 77 0-33c0-11 10-19 20-19 10 0 19 9 19 19l0 83c-1 2-1 3-1 3z"/>
<glyph glyph-name="not-available" unicode="&#98;" d="M248 293l-7 0c-2 0-5-2-5-4l0-44c0-2 0-4 0-4 0 0 0 1-2 3l-21 45c-1 2-4 4-6 4l-8 0c-2 0-4-2-4-4l0-74c0-2 2-4 4-4l8 0c2 0 4 2 4 4l0 44c0 3 0 5 0 5 0 0 1-2 2-4l22-45c1-2 4-4 6-4l7 0c2 0 4 2 4 4l0 74c0 2-2 4-4 4z m56-69l2-9c1-2 3-4 5-4l8 0c2 0 4 1 3 4l-21 74c0 2-3 4-5 4l-8 0c-3 0-5-2-6-4l-21-74c0-2 1-4 3-4l8 0c2 0 4 1 5 4l2 9c0 3 3 5 5 5l13 0c4 0 6-2 7-5z m-9 17l-6 0c-2 0-4 2-4 5l6 21c0 2 1 4 1 4 0 0 1-2 1-4l5-21c1-3-1-5-3-5z m-39 190c-96 0-175-79-175-175 0-96 79-175 175-175 96 0 175 79 175 175 0 96-79 175-175 175z m0-337c-90 0-162 72-162 162 0 90 72 162 162 162 90 0 162-72 162-162 0-90-72-162-162-162z m48 104c-2 3-6 3-9 1-3-2-4-6-2-9l32-46c1-2 3-3 5-3 1 0 2 0 3 1 3 2 4 6 2 9z m-91 115c1 0 2 1 3 1 3 3 4 6 2 9l-31 46c-2 3-6 3-9 1-3-2-3-6-1-9l30-45c2-2 4-3 6-3z"/>
<glyph glyph-name="logo-v6" unicode="&#99;" d="M454 309c0-18-15-33-33-33-19 0-34 15-34 33 0 18 15 33 34 33 18 0 33-15 33-33z m0-106c0-18-15-33-33-33-19 0-34 15-34 33 0 18 15 33 34 33 18 0 33-15 33-33z m-106 211c0-19-15-33-33-33-18 0-33 14-33 33 0 18 15 33 33 33 18 0 33-15 33-33z m6-105c0-22-17-39-39-39-22 0-39 17-39 39 0 22 17 39 39 39 22 0 39-17 39-39z m0-106c0-22-17-39-39-39-22 0-39 17-39 39 0 22 17 39 39 39 22 0 39-17 39-39z m-6-105c0-18-15-33-33-33-18 0-33 15-33 33 0 19 15 33 33 33 18 0 33-14 33-33z m-99 316c0-22-17-39-39-39-22 0-39 17-39 39 0 22 17 39 39 39 22 0 39-17 39-39z m7-105c0-26-21-46-46-46-26 0-46 20-46 46 0 25 20 46 46 46 25 0 46-21 46-46z m0-106c0-25-21-46-46-46-26 0-46 21-46 46 0 26 20 46 46 46 25 0 46-20 46-46z m-7-105c0-22-17-39-39-39-22 0-39 17-39 39 0 22 17 39 39 39 22 0 39-17 39-39z m-99 316c0-26-20-46-46-46-25 0-46 20-46 46 0 25 21 46 46 46 26 0 46-21 46-46z m0-105c0-26-20-46-46-46-25 0-46 20-46 46 0 25 21 46 46 46 26 0 46-21 46-46z m0-106c0-25-20-46-46-46-25 0-46 21-46 46 0 26 21 46 46 46 26 0 46-20 46-46z m0-105c0-25-20-46-46-46-25 0-46 21-46 46 0 26 21 46 46 46 26 0 46-20 46-46z"/>
<glyph glyph-name="expand" unicode="&#100;" d="M355 377l-107 0c-11 0-19-7-19-18 0-10 8-18 19-18l64 0-94-93c-7-7-7-19 0-25 4-4 8-6 13-6 4 0 9 2 12 6l94 93 0-64c0-10 8-18 18-18 10 0 18 8 18 18l0 107c0 11-8 18-18 18z m-39-140c-10 0-18-8-18-18l0-51-124 0 0 125 37 0c11 0 18 8 18 18 0 10-7 18-18 18l-54 0c-10 0-18-8-18-18l0-160c0-10 8-18 18-18l159 0c11 0 19 8 19 18l0 68c-2 10-9 18-19 18z"/>
<glyph glyph-name="save" unicode="&#101;" d="M244 193c4-3 8-5 13-5 4 0 9 2 12 5l76 76c7 7 7 18 0 25-7 7-18 7-25 0l-46-46 0 132c0 10-8 18-19 18-10 0-18-8-18-18l0-132-46 46c-7 7-18 7-25 0-7-7-7-18 0-25z m156 34l-46 0c-10 0-18-8-18-18 0-10 8-18 18-18l29 0 0-43-254 0 0 43 29 0c10 0 18 8 18 18 0 10-8 18-18 18l-46 0c-10 0-18-8-18-18l0-78c0-10 8-18 18-18l289 0c10 0 18 8 18 18l0 78c-1 10-9 18-19 18z"/>
<glyph glyph-name="user" unicode="&#102;" d="M319 294c20 18 34 43 34 72 0 53-43 96-96 96-54 0-97-43-97-96 0-29 14-54 34-72-65-25-111-88-111-162 0-61 93-82 174-82 80 0 174 21 174 82-2 74-48 137-112 162z m-123 72c0 34 27 61 61 61 33 0 61-27 61-61 0-34-28-61-61-61-34 1-61 28-61 61z m61-281c-77 0-139 21-139 47 0 77 62 139 139 139 76 0 139-62 139-139-2-26-64-47-139-47z"/>
<glyph glyph-name="download" unicode="&#103;" d="M363 305c-7 7-17 7-24 0l-65-65 0 125c0 9-8 17-17 17-9 0-17-8-17-17l0-127-66 66c-7 7-17 7-24 0-6-7-6-17 0-24l95-95c4-3 8-4 12-4 3 0 9 1 11 4l95 95c7 8 7 18 0 25z m-53-142l-107 0c-9 0-17-8-17-17 0-9 8-17 17-17l107 0c9 0 17 8 17 17 0 10-8 17-17 17z"/>
<glyph glyph-name="sort" unicode="&#104;" d="M396 244c-7 7-17 7-23 0l-66-64 0 188c0 9-6 16-15 16-9 0-16-7-16-16l0-223c0-1 0-1 0-3-1-4 1-10 4-13 4-4 8-5 12-5 3 0 8 1 11 5l93 93c5 6 5 16 0 22z m-163 138c-7 7-17 7-23 0l-92-93c-7-6-7-17 0-22 3-4 7-5 11-5 3 0 8 1 11 5l65 64 0-189c0-9 6-15 15-15 9 0 16 6 16 15l0 225c0 1 0 1 0 3 1 4 0 9-3 12z"/>
<glyph glyph-name="search" unicode="&#105;" d="M371 164l-49 48c11 17 18 37 18 58 0 57-45 102-102 102-56 0-101-45-101-102 0-56 45-102 101-102 24 0 46 9 64 23l48-49c4-3 7-4 11-4 3 0 7 1 10 4 5 7 5 16 0 22z m-204 107c0 40 33 73 73 73 39 0 72-33 72-73 0-39-33-72-72-72-41 0-73 33-73 72z"/>
<glyph glyph-name="settings" unicode="&#106;" d="M373 323c-3 2-7 2-9 0l-21-21c-8-8-25-6-37 5-11 11-13 28-5 37l21 20c2 3 2 7 0 10-3 2-7 2-10 0l-20-21c-12-12-11-33 1-49l-37-39-98 99c-3 2-7 2-10 0-2-3-2-7 0-10l99-98-38-38c-16 13-37 13-49 1l-21-20c-2-3-2-7 0-10 3-2 7-2 9 0l21 21c8 8 25 6 37-5 11-11 13-28 5-37l-21-20c-2-3-2-7 0-10 1-1 3-1 5-1 1 0 3 0 4 1l20 21c12 12 11 33-1 49l38 38 16-16c1-1 3-2 4-2 2 0 4 1 5 2 2 2 2 6 0 9l-16 17 38 38c8-6 18-11 26-11 9 0 17 3 23 9l20 20c3 4 3 8 1 11z m-79-70c-3 2-7 2-10 0-2-3-2-7 0-10l55-54c5-6 7-14 1-18-1-2-5-3-8-3-3 0-7 2-10 5l-55 55c-2 2-7 2-9 0-3-3-3-7 0-10l54-54c5-5 11-8 18-9 1 0 2 0 2 0 6 0 12 3 16 7 10 10 9 26-2 37z"/>
<glyph glyph-name="out" unicode="&#107;" d="M356 260l-58 58c-3 3-7 3-10 0-2-2-2-7 0-9l47-47-118 0c-4 0-7-3-7-7 0-4 2-7 7-7l118 0-47-47c-2-2-2-6 0-9 1-1 3-2 5-2 1 0 3 1 4 2l58 58c3 4 3 8 1 10z m-136-72c-3 0-7-3-7-7l0-30-47 0 0 210 47 0 0-30c0-3 3-7 7-7 4 0 7 3 7 7l0 36c0 3-3 7-7 7l-60 0c-3 0-6-3-6-7l0-222c0-3 2-7 6-7l60 0c4 0 7 3 7 7l0 36c0 3-3 7-7 7z"/>
<glyph glyph-name="promotions" unicode="&#108;" d="M329 301c-3 2-6 0-8-3-2-4 0-7 3-9 21-8 33-21 33-33 0-25-46-46-100-46-54 0-100 21-100 46 0 13 13 26 35 34 3 2 5 5 3 9-1 3-5 5-8 3-27-11-43-28-43-46l0-64c0-32 50-59 113-59 63 0 112 26 112 59l0 64c0 18-14 35-40 45z m27-108c0-25-46-46-100-46-54 0-100 21-100 46l0 37c19-19 56-32 100-32 44 0 82 13 100 32z m-100 109c7 0 15 0 20-1 0 0 1 0 1 0 4 0 6 3 6 6 0 4-2 7-6 7-6 1-14 1-22 1-3 0-7-3-7-7 0-4 5-6 8-6z m17-14c-4-4-4-11 0-15 4-4 11-4 15 0 3 3 4 6 4 9l70 67c2 3 2 7 0 9-3 3-7 3-10 0l-70-66c-2 0-6-1-9-4z m-49 1c-1-2-2-7 0-10 2-6 9-8 14-6 6 3 8 9 6 15-2 3-4 5-8 6l-35 80c-2 3-6 4-9 3-3-2-4-5-3-8z"/>
<glyph glyph-name="alert" unicode="&#109;" d="M374 209c0 62-51 156-118 156-67 0-118-94-118-156 0 0 0 0 0-1 0 0 0-1 0-1 0-3 3-6 7-6l60 0c0 0-1-1-1-2 0-28 23-51 51-51 28 0 51 23 51 51 0 1 0 2-1 2l61 0c5 0 8 4 8 8 0-1 0-1 0 0z m-118 143c56 0 102-81 105-138l-209 0c2 57 48 138 104 138z m38-153c0-22-17-39-38-39-21 0-38 17-38 39 0 1 0 2-1 2l78 0c0 0-1-1-1-2z"/>
<glyph glyph-name="fav-selected" unicode="&#110;" d="M256 362l34-70 77-11-56-54 13-77-68 36-68-36 13 77-56 54 77 11z"/>
<glyph glyph-name="fav" unicode="&#111;" d="M324 144c-1 0-1 0-2 1l-66 34-66-34c-2-1-5-1-7 1-1 2-2 4-2 6l13 73-53 52c-2 2-3 5-2 7 1 3 3 4 5 4l74 12 32 66c3 4 9 4 11 0l33-66 73-12c2 0 4-1 5-4 1-2 0-5-2-7l-53-52 13-73c0-3-1-5-2-6 0-2-2-2-4-2z m-68 49c1 0 2 0 3-1l57-30-11 64c0 2 0 4 1 6l46 45-64 10c-1 0-4 1-5 3l-27 57-29-58c-1-1-3-3-5-3l-64-10 46-45c2-1 3-3 2-6l-11-63 58 30c1 1 2 1 3 1z"/>
<glyph glyph-name="reports" unicode="&#112;" d="M282 173l-135 0 0 166 129 0 0-42c0-3 3-7 7-7 5 0 7 3 7 7l0 46c0 4-3 9-8 9l-139 0c-5 0-9-4-9-9l0-174c0-4 3-9 9-9l139 0c3 0 6 3 6 7 0 5-3 6-6 6z m72 127c-9 0-17-8-17-18 0-1 0-3 1-5l-53-53-44 37c-3 2-6 2-9 0l-37-37c-2 0-5 0-6 0-10 0-17-7-17-17 0-9 7-17 17-17 9 0 17 8 17 17 0 3-1 5-2 7l33 33 45-36c0-1 2-2 4-2 2 0 3 1 4 2l56 56c3-1 6-2 8-2 10 0 17 8 17 17 0 11-7 18-17 18z"/>
<glyph glyph-name="assortments" unicode="&#113;" d="M372 264c0 0 0 1 0 0 0 1 0 1 0 0 0 1 0 1 0 1 0 1 0 1-1 2 0 0 0 1-1 1 0 1-1 1-1 1 0 0 0 0 0 0-1 0-1 1-2 1 0 0-1 0-1 0 0 0-1 0-1 0l-41-5c-3-1-6-4-5-8 1-4 4-5 6-5 0 0 1 0 1 0l23 3c-23-31-59-48-97-48-4 0-7-3-7-7 0-5 2-7 7-7 42 0 82 19 107 54l1-21c0-3 3-6 7-6 3 0 6 4 6 7z m-194-17c-22 0-39-17-39-39 0-22 18-39 39-39 23 0 40 18 40 39 0 22-17 39-40 39z m0-65c-14 0-26 12-26 26 0 15 12 27 26 27 15 0 27-12 27-27 0-14-12-26-27-26z m0 161c-22 0-39-18-39-39 0-22 18-39 39-39 23 0 40 17 40 39 0 22-17 39-40 39z m0-66c-14 0-26 12-26 27 0 14 12 26 26 26 15 0 27-12 27-26 0-15-12-27-27-27z m102-12c22 0 39 17 39 39 0 22-18 39-39 39-22 0-39-18-39-39 0-22 17-39 39-39z m0 65c14 0 26-12 26-26 0-15-12-27-26-27-15 0-27 12-27 27 0 14 12 26 27 26z"/>
<glyph glyph-name="insights" unicode="&#114;" d="M364 326c-12 0-22-10-22-22 0-3 1-6 2-9l-70-70-60 50c-2 1-6 1-8 0l-49-49c-3 2-6 3-10 3-12 0-22-11-22-22 0-12 10-23 22-23 12 0 22 11 22 23 0 3-1 7-3 10l45 44 60-49c0-1 2-2 4-2 1 0 3 1 4 2l73 73c3-3 7-3 12-3 11 0 22 10 22 22 1 13-10 22-22 22z"/>
<glyph glyph-name="momentum" unicode="&#115;" d="M384 320l-215 0c-3 0-7-3-7-7 0-4 3-7 7-7l215 0c3 0 7 3 7 7 0 4-4 7-7 7z m-137-99l0 74c0 4-3 7-7 7-4 0-7-2-7-7l0-74c-10-3-17-12-17-23 0-13 10-24 24-24 13 0 24 10 24 24 0 11-8 20-17 23z m-7-33c-6 0-11 5-11 11 0 6 5 11 11 11 6 0 11-5 11-11 0-6-5-11-11-11z m-58 111c-4 1-7 0-9-4l-25-61c-5 1-8 0-12-2-6-2-11-7-13-13-5-12 1-25 13-30 2-1 6-2 9-2 9 0 18 5 22 14 5 11 1 22-7 28l25 61c2 4 0 7-3 9z m-27-93c-2-5-8-9-14-6-6 2-9 8-6 14 2 4 6 7 10 7 2 0 3 0 4-1 6-2 9-8 6-14z m149 15l0 74c0 4-3 7-7 7-4 0-7-2-7-7l0-74c-10-3-17-12-17-23 0-13 10-24 24-24 14 0 24 10 24 24 0 11-7 20-17 23z m-6-33c-6 0-11 5-11 11 0 6 5 11 11 11 6 0 11-5 11-11 0-6-5-11-11-11z m63 33l0 74c0 4-3 7-7 7-4 0-7-2-7-7l0-74c-10-3-17-12-17-23 0-13 10-24 24-24 14 0 24 10 24 24 1 11-7 20-17 23z m-6-33c-6 0-11 5-11 11 0 6 5 11 11 11 6 0 11-5 11-11 0-6-5-11-11-11z"/>
<glyph glyph-name="products-tracking" unicode="&#116;" d="M187 191c-12-2-25-4-38-4-3 0-6-3-6-7 0-4 2-7 6-7 14 0 28 2 40 4 4 1 6 5 6 8-1 4-6 7-8 6z m62 85c-9 5-15 8-19 12-3 4-4 10-4 16 0 7 2 12 5 17 4 4 8 6 15 6 6 0 10-3 13-8 3-4 5-14 6-16 0-5 5-9 9-9 2 0 4 1 6 3 2 2 2 4 2 7 0 1-2 18-8 25-6 9-17 12-17 12-2 1-4 4-4 5l0 8c0 5-3 10-7 10-5 0-8-5-8-10l0-8c0-1-2-4-3-5-1 0-11-3-17-11-6-7-9-16-9-27 0-12 3-21 9-27 6-6 14-12 25-17 9-4 15-7 18-12 4-4 5-9 5-15 0-7-1-12-6-17-4-4-8-7-15-7-6 0-11 3-16 7-4 3-5 12-6 17-1 5-5 9-10 9-2 0-4-1-6-3-1-2-2-4-1-7 0-1 2-19 9-26 7-8 19-11 20-11 1-1 3-3 3-5l0-6c0-5 3-9 8-9 4 0 7 4 7 9l0 6c0 2 2 5 4 5 1 0 12 3 18 10 6 7 9 16 9 27 0 12-2 21-8 28-7 7-16 13-27 17z m119 59l-20 27c0 0-1 0-1 1 0 0-1 1-1 1 0 0 0 0 0 0 0 0-1 0-1 0 0 0 0 0-1 0 0 0-1 0-1 0 0 0-1 0-1 0 0 0 0 0-1 0 0 0-1 0-1-1 0 0 0 0 0 0l-28-25c-2-3-2-7 0-9 1-2 3-2 5-2 2 0 4 1 5 2l15 14c-2-32-14-61-32-86-2-3-2-7 1-9 1-1 3-1 4-1 1 0 4 1 5 3 20 26 31 58 35 90l8-11c1-2 4-3 6-3 1 0 2 0 3 1 2 2 3 5 1 8z"/>
<glyph glyph-name="seller-analytics" unicode="&#117;" d="M192 194c-14 0-24-11-24-24 0-13 11-24 24-24 13 0 24 11 24 24 0 13-11 24-24 24z m0-36c-6 0-11 5-11 11 0 6 5 11 11 11 6 0 11-5 11-11 0-6-5-11-11-11z m95 34c-14 0-24-11-24-24 0-13 11-24 24-24 13 0 24 11 24 24 0 13-11 24-24 24z m0-35c-6 0-11 5-11 11 0 6 5 11 11 11 6 0 11-5 11-11 0-6-5-11-11-11z m-1 73c3 0 7 3 7 7l0 70c0 4-3 7-7 7-4 0-7-3-7-7l0-70c0-4 3-7 7-7z m-42 0c3 0 7 3 7 7l0 125c0 3-3 7-7 7-4 0-7-3-7-7l0-125c1-4 4-7 7-7z m-41 0c4 0 7 3 7 7l0 47c0 4-3 7-7 7-4 0-7-3-7-7l0-47c0-4 4-7 7-7z m177 94c-4 7-11 11-18 11-4 0-7-2-7-6 0-5 3-7 7-7 2 0 5-2 7-5 1-2 0-5-1-7l-62-87c-1-2-3-4-6-4l-111 0c-12 0-23 11-23 23l0 73c0 3-2 7-6 7 0 0-1 0-1 0 0 0-1 0-1 0l-21 0c-4 0-7-3-7-7 0-4 2-7 7-7l17 0 0-67c0-19 16-35 35-35l111 0c7 0 13 3 17 8l61 87c5 9 5 16 2 23z"/>
<glyph glyph-name="angle-double-left" unicode="&#118;" d="M289 119c0-3-1-5-3-7l-14-14c-2-2-4-3-7-3-2 0-5 1-6 3l-134 133c-1 2-2 4-2 7 0 2 1 4 2 6l134 133c1 2 4 3 6 3 3 0 5-1 7-3l14-14c2-2 3-4 3-6 0-3-1-5-3-7l-112-112 112-113c2-1 3-4 3-6z m110 0c0-3-1-5-3-7l-15-14c-1-2-4-3-6-3-3 0-5 1-7 3l-133 133c-2 2-3 4-3 7 0 2 1 4 3 6l133 133c2 2 4 3 7 3 2 0 5-1 6-3l15-14c2-2 3-4 3-6 0-3-1-5-3-7l-113-112 113-113c2-1 3-4 3-6z"/>
<glyph glyph-name="angle-double-right" unicode="&#119;" d="M280 238c0-3-1-5-3-7l-133-133c-2-2-4-3-7-3-2 0-5 1-6 3l-15 14c-2 2-3 4-3 7 0 2 1 5 3 6l113 113-113 112c-2 2-3 4-3 7 0 2 1 4 3 6l15 14c1 2 4 3 6 3 3 0 5-1 7-3l133-133c2-2 3-4 3-6z m109 0c0-3-1-5-2-7l-134-133c-1-2-4-3-6-3-3 0-5 1-7 3l-14 14c-2 2-3 4-3 7 0 2 1 5 3 6l112 113-112 112c-2 2-3 4-3 7 0 2 1 4 3 6l14 14c2 2 4 3 7 3 2 0 5-1 6-3l134-133c1-2 2-4 2-6z"/>
<glyph glyph-name="angle-double-up" unicode="&#120;" d="M399 137c0-2-1-5-3-6l-15-15c-1-2-4-3-6-3-3 0-5 1-7 3l-112 113-112-113c-2-2-4-3-7-3-2 0-5 1-6 3l-15 15c-2 1-3 4-3 6 0 3 1 5 3 7l133 133c2 2 5 3 7 3 2 0 5-1 7-3l133-133c2-2 3-4 3-7z m0 110c0-3-1-5-3-7l-15-14c-1-2-4-3-6-3-3 0-5 1-7 3l-112 112-112-112c-2-2-4-3-7-3-2 0-5 1-6 3l-15 14c-2 2-3 4-3 7 0 2 1 5 3 6l133 134c2 1 5 2 7 2 2 0 5-1 7-2l133-134c2-1 3-4 3-6z"/>
<glyph glyph-name="angle-down" unicode="&#121;" d="M399 302c0-3-1-5-3-7l-133-133c-2-2-5-3-7-3-2 0-5 1-7 3l-133 133c-2 2-3 4-3 7 0 2 1 4 3 6l15 15c1 1 4 2 6 2 3 0 5-1 7-2l112-113 112 113c2 1 4 2 7 2 2 0 5-1 6-2l15-15c2-2 3-4 3-6z"/>
<glyph glyph-name="angle-left" unicode="&#122;" d="M344 357c0-3-1-5-3-7l-112-112 112-113c2-1 3-4 3-6 0-3-1-5-3-7l-14-14c-2-2-5-3-7-3-2 0-5 1-7 3l-133 133c-2 2-3 4-3 7 0 2 1 4 3 6l133 133c2 2 5 3 7 3 2 0 5-1 7-3l14-14c2-2 3-4 3-6z"/>
<glyph glyph-name="angle-right" unicode="&#65;" d="M335 238c0-3-1-5-3-7l-133-133c-2-2-5-3-7-3-2 0-5 1-7 3l-14 14c-2 2-3 4-3 7 0 2 1 5 3 6l112 113-112 112c-2 2-3 4-3 7 0 2 1 4 3 6l14 14c2 2 5 3 7 3 2 0 5-1 7-3l133-133c2-2 3-4 3-6z"/>
<glyph glyph-name="angle-up" unicode="&#66;" d="M399 174c0-3-1-5-3-7l-15-14c-1-2-4-3-6-3-3 0-5 1-7 3l-112 112-112-112c-2-2-4-3-7-3-2 0-5 1-6 3l-15 14c-2 2-3 4-3 7 0 2 1 4 3 6l133 133c2 2 5 3 7 3 2 0 5-1 7-3l133-133c2-2 3-4 3-6z"/>
<glyph glyph-name="angle-double-down" unicode="&#67;" d="M399 265c0-2-1-5-3-6l-133-134c-2-1-5-2-7-2-2 0-5 1-7 2l-133 134c-2 1-3 4-3 6 0 3 1 5 3 7l15 14c1 2 4 3 6 3 3 0 5-1 7-3l112-112 112 112c2 2 4 3 7 3 2 0 5-1 6-3l15-14c2-2 3-4 3-7z m0 110c0-3-1-5-3-7l-133-133c-2-2-5-3-7-3-2 0-5 1-7 3l-133 133c-2 2-3 4-3 7 0 2 1 5 3 6l15 15c1 2 4 3 6 3 3 0 5-1 7-3l112-113 112 113c2 2 4 3 7 3 2 0 5-1 6-3l15-15c2-1 3-4 3-6z"/>
<glyph glyph-name="caret-down" unicode="&#68;" d="M402 311c0-5-2-9-5-13l-128-128c-4-4-8-5-13-5-5 0-9 1-13 5l-128 128c-3 4-5 8-5 13 0 5 2 9 5 13 4 3 8 5 13 5l256 0c5 0 9-2 13-5 3-4 5-8 5-13z"/>
<glyph glyph-name="caret-left" unicode="&#69;" d="M347 384l0-256c0-5-1-9-5-13-4-3-8-5-13-5-5 0-9 2-13 5l-128 128c-3 4-5 8-5 13 0 5 2 9 5 13l128 128c4 3 8 5 13 5 5 0 9-2 13-5 4-4 5-8 5-13z"/>
<glyph glyph-name="caret-right" unicode="&#70;" d="M329 256c0-5-2-9-5-13l-128-128c-4-3-8-5-13-5-5 0-9 2-13 5-4 4-5 8-5 13l0 256c0 5 1 9 5 13 4 3 8 5 13 5 5 0 9-2 13-5l128-128c3-4 5-8 5-13z"/>
<glyph glyph-name="caret-up" unicode="&#71;" d="M402 165c0-5-2-10-5-13-4-4-8-6-13-6l-256 0c-5 0-9 2-13 6-3 3-5 8-5 13 0 5 2 9 5 12l128 128c4 4 8 6 13 6 5 0 9-2 13-6l128-128c3-3 5-7 5-12z"/>
<glyph glyph-name="info" unicode="&#72;" d="M199 294c1 33 23 51 54 51 31 0 53-15 53-45 0-47-45-46-45-88l-17 0c0 47 42 46 42 84 0 19-15 28-35 28-20 0-34-10-35-31z m68-131c0-8-6-15-14-15-8 0-13 6-13 15 0 8 5 14 13 14 8 0 14-6 14-14z m-10-94c-103 0-188 84-188 188 0 104 84 186 188 186 104 0 186-84 186-188 0-104-84-186-186-186z m0 350c-91 0-164-73-164-164 0-90 73-163 164-163 90 0 163 73 163 163 0 91-73 164-163 164z"/>
<glyph glyph-name="check-1" unicode="&#73;" d="M212 77c-11 0-21 5-28 14 0 0-92 121-92 121-6 8-8 17-6 27 1 9 5 17 13 23 7 6 16 9 26 7 10-1 18-6 24-14 0 0 60-79 60-79 0 0 152 243 152 243 5 8 13 13 22 15 9 2 18 1 27-4 8-5 13-13 15-22 3-9 1-18-4-27 0 0-179-287-179-287-7-11-16-16-28-16 0 0-2-1-2-1"/>
<glyph glyph-name="sort-1" unicode="&#74;" d="M402 201c0-5-2-9-5-13l-128-128c-4-3-8-5-13-5-5 0-9 2-13 5l-128 128c-3 4-5 8-5 13 0 5 2 9 5 13 4 4 8 5 13 5l256 0c5 0 9-1 13-5 3-4 5-8 5-13z m0 110c0-5-2-9-5-13-4-4-8-5-13-5l-256 0c-5 0-9 1-13 5-3 4-5 8-5 13 0 5 2 9 5 13l128 128c4 3 8 5 13 5 5 0 9-2 13-5l128-128c3-4 5-8 5-13z"/>
<glyph glyph-name="sort-asc" unicode="&#75;" d="M402 311c0-5-2-9-5-13-4-4-8-5-13-5l-256 0c-5 0-9 1-13 5-3 4-5 8-5 13 0 5 2 9 5 13l128 128c4 3 8 5 13 5 5 0 9-2 13-5l128-128c3-4 5-8 5-13z"/>
<glyph glyph-name="sort-desc" unicode="&#76;" d="M402 201c0-5-2-9-5-13l-128-128c-4-3-8-5-13-5-5 0-9 2-13 5l-128 128c-3 4-5 8-5 13 0 5 2 9 5 13 4 4 8 5 13 5l256 0c5 0 9-1 13-5 3-4 5-8 5-13z"/>
<glyph glyph-name="primitive-dot" unicode="&#77;" d="M128 256c0 71 57 128 128 128 71 0 128-57 128-128 0-71-57-128-128-128-71 0-128 57-128 128z"/>
<glyph glyph-name="plus" unicode="&#78;" d="M288 288l0 128-64 0 0-128-128 0 0-64 128 0 0-128 64 0 0 128 128 0 0 64z"/>
<glyph glyph-name="dash" unicode="&#79;" d="M128 288l0-64 256 0 0 64z"/>
<glyph glyph-name="triangle-down" unicode="&#80;" d="M64 320l192-192 192 192z"/>
<glyph glyph-name="triangle-left" unicode="&#81;" d="M160 256l192-192 0 384z"/>
<glyph glyph-name="triangle-right" unicode="&#82;" d="M160 448l192-192-192-192z"/>
<glyph glyph-name="triangle-up" unicode="&#83;" d="M256 384l-192-192 384 0z"/>
<glyph glyph-name="align-left" unicode="&#84;" d="M416 434l-320 0c-10 0-17-7-17-17l0-16c0-10 7-17 17-17l320 0c10 0 17 7 17 17l0 16c0 10-7 17-17 17z m-320-152l234 0c9 0 17 7 17 17l0 16c0 10-8 18-17 18l-234 0c-10 0-17-8-17-18l0-16c0-10 7-17 17-17z m285-154l-285 0c-10 0-17-7-17-17l0-16c0-10 7-17 17-17l285 0c10 0 17 7 17 17l0 0 0 16 0 0c0 10-7 17-17 17z m-285 52l199 0c9 0 17 7 17 17 0 0 0 0 0 0l0 16c0 10-8 17-17 17l-199 0c-10 0-17-7-17-17l0-16c0-10 7-17 17-17z"/>
<glyph glyph-name="align-right" unicode="&#85;" d="M416 434l-320 0c-10 0-17-7-17-17l0-16c0-10 7-17 17-17l320 0c10 0 17 7 17 17l0 16c0 10-7 17-17 17z m0-102l-234 0c-9 0-17-7-17-17l0-16c0-10 8-17 17-17l234 0c10 0 17 7 17 17l0 16c0 10-7 17-17 17z m0-204l-285 0c-10 0-17-7-17-17l0-16c0-10 7-17 17-17l285 0c9 0 17 7 17 17l0 0 0 16 0 0c0 10-8 17-17 17z m17 85c0 10-7 17-17 17l-199 0c-9 0-17-7-17-17l0-16c0-10 8-17 17-17l199 0c10 0 17 7 17 17 0 0 0 0 0 0z"/>
<glyph glyph-name="align-justify" unicode="&#86;" d="M416 433l-320 0c-10 0-17-8-17-17l0-16c0-10 7-18 17-18l320 0c10 0 17 8 17 18l0 16c0 9-7 17-17 17z m0-101l-320 0c-10 0-17-8-17-17l0-16c0-10 7-18 17-18l320 0c10 0 17 8 17 18l0 16c0 9-7 17-17 17z m0-101l-320 0c-10 0-17-8-17-18l0-16c0-9 7-17 17-17l320 0c10 0 17 8 17 17l0 16c0 10-7 18-17 18z m0-101l-320 0c-10 0-17-8-17-18l0-16c0-9 7-17 17-17l320 0c10 0 17 8 17 17l0 16c0 10-7 18-17 18z"/>
<glyph glyph-name="align-center" unicode="&#87;" d="M416 434l-320 0c-10 0-17-7-17-17l0-16c0-10 7-17 17-17l320 0c10 0 17 7 17 17l0 16c0 10-7 17-17 17z m-26-135l0 16c0 10-8 17-17 17l-234 0c-9 0-17-7-17-17l0-16c0-10 8-17 17-17l234 0c9 0 17 7 17 17z m8-171l-284 0c-10 0-18-7-18-17l0-16c0-10 8-17 18-17l284 0c10 0 18 7 18 17l0 0 0 16 0 0c0 10-8 17-18 17z m-25 85c0 10-8 17-18 17l-198 0c-10 0-18-7-18-17l0-16c0-10 8-17 18-17l198 0c10 0 18 7 18 17 0 0 0 0 0 0z"/>
<glyph glyph-name="play" unicode="&#88;" d="M394 256c0 4-2 8-6 10l-252 146c-2 1-4 2-7 2-6 0-11-5-11-12 0 0 0-1 0-1l0 0 0-293 0 0c1-5 5-10 11-10 2 0 4 1 6 2l0 0 253 146 0 0c4 2 6 6 6 10z"/>
<glyph glyph-name="cancel" unicode="&#89;" d="M367 176c6-6 9-13 9-22 0-8-3-16-9-22-6-5-13-8-22-8-8 0-16 3-22 8 0 0-68 78-68 78 0 0-67-78-67-78-6-5-14-8-22-8-9 0-16 3-22 8-6 6-8 14-8 22 0 9 2 16 8 22 0 0 71 80 71 80 0 0-71 81-71 81-6 6-8 13-8 22 0 8 2 16 8 22 6 5 13 8 22 8 8 0 16-3 22-8 0 0 67-78 67-78 0 0 68 78 68 78 6 5 14 8 22 8 9 0 16-3 22-8 6-6 9-14 9-22 0-9-3-16-9-22 0 0-71-81-71-81 0 0 71-80 71-80"/>
<glyph glyph-name="cloud" unicode="&#90;" d="M389 330c34 0 63-12 87-35 24-23 36-52 36-85 0-34-12-62-36-85-24-23-53-35-87-35 0 0-296 0-296 0-25 0-47 9-65 27-19 17-28 39-28 63 0 25 9 47 27 65 18 17 40 26 66 26 1 0 3 0 5 0 3 0 5-1 5-1 0 4-1 11-1 20 0 37 14 68 40 94 27 26 59 39 97 39 30 0 58-9 82-27 23-17 39-40 48-68 9 1 16 2 20 2"/>
<glyph glyph-name="code" unicode="&#48;" d="M195 402c5-4 8-10 8-16 0-6-3-11-8-15 0 0-126-115-126-115 0 0 126-116 126-116 5-4 8-9 8-15 0-6-3-12-8-16-11-11-21-11-31 0 0 0-164 147-164 147 0 0 164 146 164 146 10 11 20 11 31 0m154 0c0 0 163-146 163-146 0 0-163-147-163-147-11-11-21-11-32 0-10 10-10 21 0 31 0 0 127 116 127 116 0 0-127 115-127 115-10 10-10 21 0 31 11 11 21 11 32 0"/>
<glyph glyph-name="down-open" unicode="&#49;" d="M396 293c0 0-120-115-120-115-6-6-12-9-20-9-8 0-14 3-20 9 0 0-120 115-120 115-6 5-8 12-8 21 0 8 2 15 8 21 13 13 26 13 40 0 0 0 100-96 100-96 0 0 100 96 100 96 14 13 27 13 40 0 6-6 8-13 8-21 0-9-2-16-8-21"/>
<glyph glyph-name="down-open-big" unicode="&#50;" d="M67 369c0 0 189-183 189-183 0 0 190 183 190 183 8 9 16 9 25 0 9-8 9-16 0-25 0 0-203-201-203-201-7-7-15-7-24 0 0 0-203 201-203 201-9 9-9 17 0 25 8 8 17 8 26 0"/>
<glyph glyph-name="down-open-mini" unicode="&#51;" d="M344 317c8 9 16 9 25 0 9-7 9-15 0-24 0 0-101-98-101-98-7-8-15-8-24 0 0 0-101 98-101 98-9 9-9 17 0 24 9 9 17 9 26 0 0 0 87-79 87-79 0 0 88 79 88 79"/>
<glyph glyph-name="dot" unicode="&#52;" d="M256 312c16 0 29-5 40-16 11-11 16-24 16-40 0-15-5-28-16-39-11-12-24-17-40-17-16 0-29 5-40 17-11 11-16 24-16 39 0 16 5 29 16 40 11 11 24 16 40 16"/>
<glyph glyph-name="dot-2" unicode="&#53;" d="M166 312c16 0 29-5 40-16 11-11 17-24 17-40 0-15-6-28-17-39-11-12-24-17-40-17-15 0-29 5-40 16-10 11-16 24-16 40 0 16 6 29 16 40 11 11 25 16 40 16m180 0c15 0 29-5 40-16 10-11 16-24 16-40 0-15-6-28-17-39-11-12-24-17-39-17-16 0-29 5-40 16-11 11-17 24-17 40 0 16 6 29 17 40 11 11 24 16 40 16"/>
<glyph glyph-name="dot-3" unicode="&#54;" d="M77 312c16 0 29-5 40-16 11-11 16-24 16-40 0-15-5-28-16-39-11-12-24-17-40-17-16 0-29 5-40 17-11 11-17 24-17 39 0 16 6 29 17 40 11 11 24 16 40 16m179 0c16 0 29-5 40-16 11-11 16-24 16-40 0-15-5-28-17-39-11-12-24-17-39-17-15 0-28 5-39 17-12 11-17 24-17 39 0 16 5 29 16 40 11 11 24 16 40 16m179 0c16 0 29-5 40-16 11-11 17-24 17-40 0-15-6-28-17-39-11-12-24-17-40-17-15 0-29 5-40 17-11 11-16 24-16 39 0 16 5 29 16 40 11 11 25 16 40 16"/>
<glyph glyph-name="help" unicode="&#55;" d="M360 456c30-21 44-53 44-95 0-21-7-43-21-63-4-7-19-20-45-41 0 0-24-15-24-15-13-12-21-22-24-31-2-6-4-13-4-23 0-4-3-7-8-7 0 0-66 0-66 0-5 0-8 2-8 6 1 34 6 55 14 64 6 7 14 16 25 24 11 9 20 16 28 22 0 0 13 7 13 7 7 6 13 11 17 18 10 15 14 26 14 35 0 14-4 27-13 40-9 13-25 19-47 19-23 0-39-8-48-23-10-14-14-30-14-47 0 0-85 0-85 0 2 55 21 95 58 119 24 14 52 21 85 21 44 0 81-10 109-30m-110-326c15 0 27-5 37-15 10-11 15-23 14-38-1-16-6-28-16-38-11-9-23-13-38-12-15 0-28 5-38 14-9 10-14 23-13 39 0 16 6 28 16 37 10 9 23 14 38 13"/>
<glyph glyph-name="heart-empty" unicode="&#56;" d="M440 406c24-22 36-49 36-80 0-32-12-58-36-80 0 0-184-169-184-169 0 0-184 169-184 169-24 22-36 48-36 80 0 31 12 58 36 80 22 19 47 29 78 29 30 0 55-10 76-29 0 0 30-27 30-27 0 0 29 27 29 27 22 19 47 29 77 29 31 0 56-10 78-29m-27-134c14 14 21 32 21 54 0 22-6 39-19 51-13 13-31 19-53 19-17 0-35-8-53-24 0 0-53-47-53-47 0 0-54 47-54 47-17 16-34 24-52 24-22 0-40-6-54-19-13-12-19-30-19-51 0-23 7-41 22-54 0 0 157-146 157-146 0 0 157 146 157 146"/>
<glyph glyph-name="heart" unicode="&#57;" d="M440 407c24-22 36-49 36-80 0-32-12-59-36-81 0 0-184-169-184-169 0 0-184 169-184 169-24 22-36 49-36 81 0 31 12 58 36 80 21 19 47 29 77 29 30 0 56-10 78-29 0 0 29-27 29-27 0 0 30 27 30 27 21 19 46 29 76 29 31 0 56-10 78-29"/>
<glyph glyph-name="left-open" unicode="&#33;" d="M293 397c4 6 11 9 20 9 8 0 15-3 21-9 13-12 13-26 0-41 0 0-96-100-96-100 0 0 96-99 96-99 13-15 13-29 0-41-6-6-13-8-21-8-8 0-15 2-20 8 0 0-116 121-116 121-6 5-8 11-8 19 0 8 2 15 8 20 70 74 109 114 116 121"/>
<glyph glyph-name="left-dir" unicode="&#34;" d="M358 374c0 0 0-236 0-236 0 0-204 118-204 118 0 0 204 118 204 118"/>
<glyph glyph-name="down-dir" unicode="&#35;" d="M374 358c0 0-118-204-118-204 0 0-118 204-118 204 0 0 236 0 236 0"/>
<glyph glyph-name="left-open-big" unicode="&#36;" d="M368 67c9-9 9-18 0-25-8-9-17-9-24 0 0 0-201 202-201 202-8 8-8 16 0 25 0 0 201 202 201 202 7 9 16 9 24 0 9-7 9-16 0-25 0 0-183-190-183-190 0 0 183-189 183-189"/>
<glyph glyph-name="left-open-mini" unicode="&#37;" d="M317 169c9-9 9-17 0-25-9-8-17-8-24 0 0 0-99 100-99 100-8 8-8 16 0 25 0 0 99 100 99 100 7 9 15 9 24 0 9-8 9-16 0-25 0 0-80-88-80-88 0 0 80-87 80-87"/>
<glyph glyph-name="play-1" unicode="&#38;" d="M377 269c5-3 7-8 7-13 0-5-2-9-7-12 0 0-219-136-219-136-8-6-15-7-21-4-6 4-9 11-9 21 0 0 0 263 0 263 0 10 3 17 9 21 6 3 13 2 21-3 0 0 219-137 219-137"/>
<glyph glyph-name="minus" unicode="&#39;" d="M389 282c10 0 15-9 15-26 0-17-5-26-15-26 0 0-266 0-266 0-10 0-15 9-15 26 0 17 5 26 15 26 0 0 266 0 266 0"/>
<glyph glyph-name="plus-1" unicode="&#40;" d="M389 282c10 0 15-9 15-26 0-17-5-26-15-26 0 0-107 0-107 0 0 0 0-107 0-107 0-10-9-15-26-15-17 0-26 5-26 15 0 0 0 107 0 107 0 0-107 0-107 0-10 0-15 9-15 26 0 17 5 26 15 26 0 0 107 0 107 0 0 0 0 107 0 107 0 10 9 15 26 15 17 0 26-5 26-15 0 0 0-107 0-107 0 0 107 0 107 0"/>
<glyph glyph-name="right-dir" unicode="&#41;" d="M154 374c0 0 204-118 204-118 0 0-204-118-204-118 0 0 0 236 0 236"/>
<glyph glyph-name="right-open" unicode="&#42;" d="M219 397c0 0 116-121 116-121 5-5 8-12 8-20 0-8-3-14-8-19 0 0-116-121-116-121-5-6-12-8-20-8-9 0-15 2-21 8-12 12-12 26 0 41 0 0 95 99 95 99 0 0-95 100-95 100-12 15-12 29 0 41 6 6 13 9 21 9 9 0 15-3 20-9"/>
<glyph glyph-name="right-open-big" unicode="&#43;" d="M144 67c0 0 183 189 183 189 0 0-183 190-183 190-9 9-9 18 0 25 8 9 17 9 24 0 0 0 201-202 201-202 8-9 8-17 0-25 0 0-201-202-201-202-7-9-16-9-24 0-9 7-9 16 0 25"/>
<glyph glyph-name="right-open-mini" unicode="&#44;" d="M195 169c0 0 81 87 81 87 0 0-81 88-81 88-9 9-9 17 0 25 9 9 17 9 24 0 0 0 99-100 99-100 8-9 8-17 0-25 0 0-99-100-99-100-7-8-15-8-24 0-9 8-9 16 0 25"/>
<glyph glyph-name="up-dir" unicode="&#45;" d="M138 154c0 0 118 204 118 204 0 0 118-204 118-204 0 0-236 0-236 0"/>
<glyph glyph-name="up-open" unicode="&#46;" d="M396 220c6-5 8-12 8-21 0-8-2-15-8-21-13-13-26-13-40 0 0 0-100 96-100 96 0 0-100-96-100-96-14-13-27-13-40 0-6 6-8 13-8 21 0 9 2 16 8 21 0 0 120 115 120 115 5 5 12 8 20 8 8 0 15-3 20-8 0 0 120-115 120-115"/>
<glyph glyph-name="up-open-big" unicode="&#47;" d="M446 143c0 0-190 184-190 184 0 0-189-184-189-184-9-7-18-7-26 0-8 9-8 17 0 26 0 0 203 200 203 200 9 9 17 9 24 0 0 0 203-200 203-200 8-9 8-17 0-26-9-7-17-7-25 0"/>
<glyph glyph-name="up-open-mini" unicode="&#58;" d="M169 195c-9-8-17-8-26 0-8 8-8 16 0 25 0 0 101 97 101 97 9 9 17 9 24 0 0 0 101-97 101-97 8-9 8-17 0-25-9-8-17-8-26 0 0 0-87 80-87 80 0 0-87-80-87-80"/>
<glyph glyph-name="reload" unicode="&#59;" d="M295 446c-96 0-175-66-187-160l-81 16 80-118 118 79-75 15c10 60 73 126 146 126 81 0 146-69 146-150 0-80-80-146-144-146l0-42c107 0 187 86 187 190 0 104-86 190-190 190z"/>
<glyph glyph-name="refresh" unicode="&#60;" d="M117 271c10 57 68 119 138 119 41 0 77-18 102-47l34 23c-33 39-83 65-137 65-91 0-166-63-177-152l-77 15 76-112 111 76z m319 59l-111-76 70-13c-10-57-69-119-138-119-41 0-77 18-102 47l-34-23c33-39 83-65 137-65 91 0 166 63 177 152l77-15z"/>
<glyph glyph-name="view" unicode="&#61;" d="M256 174c-76 0-137 75-139 78-2 2-2 6 0 7 2 4 63 78 139 78 76 0 137-75 139-78 2-2 2-6 0-7-2-3-63-78-139-78z m-125 82c13-15 64-69 125-69 61 0 113 54 125 69-13 15-64 69-125 69-61 0-112-54-125-69z m125-37c-33 0-61 28-61 61 0 3 3 7 7 7 5 0 7-3 7-7 0-27 21-48 48-48 26 0 48 21 48 48 0 3 2 7 6 7 5 0 7-3 7-7-1-33-29-61-62-61z"/>
<glyph glyph-name="e-mail" unicode="&#62;" d="M365 334c0 1 0 1 0 1 0 1-1 1-1 1 0 0 0 1 0 1 0 0-1 1-1 1 0 0-1 1-1 1 0 0-1 0-1 0-1 0-1 0-2 0l-205 0c-1 0-1 0-2 0 0 0-1 0-1 0 0 0-1-1-1-1 0 0-1-1-1-1 0 0 0-1-1-1 0 0 0-1 0-1 0 0 0 0 0-1 0 0 0-1 0-1l0-154c0 0 0-1 0-1 0-1 0-1 0-1 0-1 0-1 0-1 0 0 0-1 1-1 1-1 1-1 2-1 1 0 2-1 3-1l205 0c1 0 2 0 3 1 1 0 1 1 2 1 0 0 0 1 0 1 0 0 1 1 1 1 0 0 0 0 0 1 0 0 0 1 0 1l0 154c0 1 0 1 0 1z m-13-140l-68 62 68 62z m-97 53l-86 80 173 0z m-95 71l67-63-67-61z m76-71l15-14c0 0 1-1 1-1 0 0 1 0 1-1 0 0 1-1 2-1 1 0 2 0 3 1 0 0 1 0 1 1 0 0 0 0 0 1l16 14 67-61-173 0z"/>
<glyph glyph-name="delete-1" unicode="&#63;" d="M380 340l-247 0c-3 0-7-2-7-6 0-5 3-7 7-7l10 0 0-186c0-4 2-7 6-7l215 0c4 0 7 3 7 7l0 187 10 0c3 0 6 2 6 7 0 4-4 5-7 5z m-22-192l-41 0 0 124c0 4-3 7-7 7-5 0-7-3-7-7l0-124-41 0 0 124c0 4-3 7-7 7-4 0-7-3-7-7l0-124-41 0 0 124c0 4-2 7-6 7-5 0-7-3-7-7l0-124-41 0 0 180 203 0 0-180z m-122 216l40 0c4 0 7 2 7 6 0 5-2 7-7 7l-40 0c-3 0-6-2-6-7 0-4 3-6 6-6z"/>
<glyph glyph-name="edit-1" unicode="&#64;" d="M368 282c-3 2-6 3-10 0l-111-93c-3-3-4-6-1-10 1-2 3-2 5-2 2 0 2 0 4 1l112 95c2 2 2 6 1 9z m-219 40l148 0c3 0 7 2 7 7 0 4-3 6-7 6l-148 0c-3 0-6-2-6-6 0-5 3-7 6-7z m0-97l102 0c3 0 7 3 7 7 0 4-3 7-7 7l-102 0c-3 0-6-3-6-7 0-4 3-7 6-7z m0 49l57 0c3 0 6 2 6 7 0 4-2 7-6 7l-57 0c-3 0-6-3-6-7 0-5 3-7 6-7z m57-84l-57 0c-3 0-6-2-6-7 0-4 2-6 6-6l57 0c3 0 6 2 6 6 0 5-3 7-6 7z"/>
<glyph glyph-name="edit-2" unicode="&#91;" d="M368 315c-3 2-6 3-10 1l-116-92c-3-2-3-6-1-9 0-2 3-3 5-3 1 0 2 1 4 2l117 91c2 3 2 6 1 10z m-75-122c-4 0-7-3-7-7l0-14-130 0 0 167 131 0 0-29c0-4 2-7 7-7 4 0 6 2 6 7l0 33c0 4-3 9-8 9l-141 0c-4 0-8-4-8-9l0-175c0-4 3-8 8-8l139 0c4 0 9 3 9 8l0 18c0 4-3 7-6 7z"/>
<glyph glyph-name="dashboard" unicode="&#93;" d="M366 249c-1 4-4 6-8 5-3-1-6-4-5-7 2-8 3-16 3-23 0-4 2-7 7-7 4 0 6 2 6 7 0 7-1 17-3 25z m-68 65c3-2 7 0 8 3 2 4 0 7-3 9-15 7-31 10-47 10-62 0-113-50-113-112 0-4 3-7 7-7 4 0 7 2 7 7 0 55 45 99 100 99 14 0 28-3 41-9z m60-17c3 3 3 7 0 9-2 3-6 3-9 0l-77-76c-5 3-11 6-17 6-16 0-30-14-30-30 0-17 14-30 30-30 16 0 30 13 30 30 0 5-2 10-4 14z m-102-108c-9 0-17 7-17 17 0 9 8 17 17 17 9 0 17-8 17-17 0-10-8-17-17-17z"/>
<glyph glyph-name="info-notification" unicode="&#94;" d="M256 50c-113 0-206 92-206 206 0 114 93 206 206 206 113 0 206-92 206-206 0-114-93-206-206-206z m0 399c-107 0-193-86-193-193 0-107 86-193 193-193 107 0 193 86 193 193 0 107-86 193-193 193z m0-117c-3 0-6 3-6 7l0 11c0 3 3 6 6 6 3 0 6-3 6-6l0-12c0-3-3-6-6-6z m0-176c-3 0-6 3-6 6l0 120c0 3 3 6 6 6 3 0 6-3 6-6l0-120c0-4-3-6-6-6z"/>
<glyph glyph-name="error-notification" unicode="&#95;" d="M256 141c-3 0-6 3-6 6l0 15c0 3 3 6 6 6 3 0 6-3 6-6l0-15c0-4-3-6-6-6z m0 54c-3 0-6 3-6 7l0 109c0 3 3 6 6 6 3 0 6-3 6-6l0-109c0-4-3-7-6-7z m161-104l-322 0c-10 0-18 5-22 14-5 8-5 17 0 25l162 279c4 7 12 12 21 12 9 0 17-4 21-11l161-280c5-8 5-17 1-25-4-8-12-14-22-14z m-161 317c-4 0-8-2-10-6l-162-279c-2-4-3-9 0-12 2-4 6-7 10-7l323 0c5 0 8 3 11 7 2 3 2 8-1 12l-161 280c-2 3-6 5-10 5z"/>
<glyph glyph-name="success-notification" unicode="&#96;" d="M373 313l-149-122-68 70c-2 3-6 3-9 0-2-2-2-6 0-9l72-74c2-1 3-2 5-2 1 0 3 0 4 1l153 126c3 2 3 6 1 8-2 4-6 4-9 2z m-117 149c-113 0-206-92-206-206 0-113 92-206 206-206 114 0 206 92 206 206 0 113-93 206-206 206z m0-399c-107 0-193 86-193 193 0 107 86 193 193 193 107 0 193-86 193-193 0-107-86-193-193-193z"/>
<glyph glyph-name="arrow-curve-r-l" unicode="&#123;" d="M475 213c-110 111-284 122-408 27l-9 25c-3-16-11-38-20-54 17 7 39 12 56 12l-23 13c121 92 292 81 400-27 1-1 1-1 2-1 1 0 2 0 2 1 2 1 2 3 0 4z"/>
<glyph glyph-name="arrow-curve-l-r" unicode="&#124;" d="M481 209c-9 17-17 39-20 56l-10-25c-127 98-308 86-422-28-2-2-2-3 0-5 0 0 1-1 2-1 0 0 1 1 2 1 112 112 289 124 414 28l-24-13c18 0 41-6 58-13z"/>
<glyph glyph-name="arrow-curve-l-r-d" unicode="&#125;" d="M486 304c-18-7-42-13-60-13l25-13c-128-98-308-87-422 28-2 1-4 1-5 0-1-1-1-3 0-4 64-64 148-97 232-97 70 0 140 23 199 68l10-26c3 17 12 40 21 57z"/>
<glyph glyph-name="arrow-curve-r-l-d" unicode="&#126;" d="M494 307c-1 2-3 2-4 0-117-117-303-129-434-29l26 14c-19 0-43 6-61 13 9-17 18-41 21-59l10 27c61-46 133-69 204-69 87 0 173 33 238 98 1 2 1 4 0 5z"/>
<glyph glyph-name="create-alert" unicode="&#92;" d="M332 276l-56 0 0 56c0 12-9 21-21 21-11 0-20-9-20-21l0-56-56 0c-12 0-21-9-21-21 0-11 9-20 21-20l56 0 0-56c0-12 9-21 20-21 12 0 21 9 21 21l0 56 56 0c12 0 21 9 21 20 0 12-9 21-21 21z m-75 130c-83 0-151-68-151-151 0-82 68-150 151-150 82 0 150 68 150 150 0 84-68 151-150 151z m0-268c-66 0-119 53-119 119 0 65 53 118 119 118 65 0 118-53 118-118-1-66-54-119-118-119z"/>
<glyph glyph-name="pause" unicode="&#57344;" d="M163 85c-25 0-46 21-46 47l0 248c0 26 21 47 46 47 26 0 47-21 47-47l0-248c0-26-21-47-47-47z m0 330c-19 0-35-16-35-35l0-248c0-19 16-35 35-35 20 0 35 16 35 35l0 248c0 19-15 35-35 35z m186-330c-26 0-47 21-47 47l0 248c0 26 21 47 47 47 25 0 46-21 46-47l0-248c1-26-20-47-46-47z m0 330c-20 0-35-16-35-35l0-248c0-19 15-35 35-35 19 0 35 16 35 35l0 248c0 19-16 35-35 35z"/>
<glyph glyph-name="play-2" unicode="&#57345;" d="M256 50c-113 0-206 92-206 206 0 114 93 206 206 206 113 0 206-92 206-206 0-114-93-206-206-206z m0 399c-107 0-193-86-193-193 0-107 86-193 193-193 107 0 193 86 193 193 0 107-86 193-193 193z m-43-266c-1 0-2 0-3 1-2 1-3 3-3 5l0 134c0 2 1 4 3 5 2 1 4 1 6 0l117-66c2-2 3-4 3-6 0-2-1-4-3-6l-116-66c-2-1-2-1-4-1z m7 128l0-110 97 55z"/>
<glyph glyph-name="history" unicode="&#57346;" d="M476 97c-19 0-34-16-34-36 0-19 15-35 34-35 19 0 34 16 34 35 0 20-15 36-34 36m-147 25c-32 0-58-27-58-61 0-33 26-60 58-60 32 0 57 27 57 60 0 34-25 61-57 61m-148-25c-18 0-34-16-34-36 0-19 16-35 34-35 19 0 34 16 34 35 0 20-15 36-34 36m-147 0c-19 0-34-16-34-36 0-19 15-35 34-35 19 0 34 16 34 35 0 20-15 36-34 36m442 191c-19 0-34-16-34-36 0-20 15-36 34-36 19 0 34 16 34 36 0 20-15 36-34 36m-295 24c-31 0-57-27-57-60 0-33 26-60 57-60 32 0 57 27 57 60 0 33-25 60-57 60m-147-24c-19 0-34-16-34-36 0-20 15-36 34-36 19 0 34 16 34 36 0 20-15 36-34 36m442 119c19 0 34 16 34 36 0 19-15 35-34 35-19 0-34-16-34-35 0-20 15-36 34-36m-147 99c-34 0-62-29-62-65 0-35 28-64 62-64 33 0 61 29 61 64 0 36-28 65-61 65m0-377c-34 0-62-29-62-65 0-35 28-64 62-64 33 0 61 29 61 64 0 36-28 65-61 65m-148 278c19 0 34 16 34 36 0 19-15 35-34 35-18 0-34-16-34-35 0-20 16-36 34-36m-147 71c-19 0-34-16-34-35 0-20 15-36 34-36 19 0 34 16 34 36 0 19-15 35-34 35"/>
<glyph glyph-name="play-3" unicode="&#57347;" d="M450 247l-379-211c-5-2-8-2-11-1-4 2-5 6-5 11l0 420c0 5 1 9 5 11 3 1 6 1 11-1l379-211c5-3 7-6 7-9 0-3-2-6-7-9z"/>
<glyph glyph-name="v6-icons-21" unicode="&#57348;" d="M241 237l103 0-12-17c-5-8-3-19 5-24 8-6 19-4 25 4l29 44c0 0 0 1 1 1 0 1 1 3 1 3 0 1 0 1 1 2 0 1 0 1 0 2 0 0 0 1 0 1 0 0 0 1 0 1 0 1 0 1 0 3 0 1 0 1-1 2 0 1-1 2-1 2 0 0 0 1 0 1l-24 40c-3 5-9 9-14 9-4 0-6-1-9-2-8-5-12-16-6-24l8-14-105 0c-10 0-18-8-18-18-1-8 7-16 17-16z m71-48c-10 0-18-8-18-18l0-7-140 0 0 184 140 0 0-26c0-10 8-18 18-18 10 0 18 8 18 18l0 41c0 11-9 20-20 20l-172 0c-11 0-20-9-20-20l0-215c0-11 9-20 20-20l171 0c11 0 20 9 20 20l0 23c0 10-8 18-17 18z"/>
<glyph glyph-name="v6-icons-07" unicode="&#57349;" d="M370 316c-15 0-28-12-28-27 0-3 2-6 3-9l-42-34-75 63c-3 2-8 2-11 0l-61-60c-3 2-8 3-12 3-15 0-28-12-28-27 0-15 13-27 28-27 14 0 27 12 27 27 0 4-1 9-4 12l56 56 73-64c1-1 4-2 6-2 2 0 3 1 4 2l48 38c4-4 10-5 16-5 14 0 27 13 27 27 0 15-13 27-27 27z"/>
<glyph glyph-name="v6-icons-06" unicode="&#57350;" d="M186 301l-24 0 0 92c0 5-4 8-8 8-5 0-8-3-8-8l0-92-25 0c-5 0-8-4-8-8l0-95c0-5 3-8 8-8l25 0 0-74c0-4 3-7 8-7 4 0 8 3 8 7l0 74 24 0c5 0 8 3 8 8l0 95c0 4-3 8-8 8z m102 74l-25 0 0 19c0 5-3 8-8 8-4 0-7-3-7-8l0-19-25 0c-5 0-8-3-8-8l0-95c0-4 3-8 8-8l25 0 0-146c0-5 3-8 7-8 5 0 8 3 8 8l0 146 25 0c5 0 8 4 8 8l0 95c-1 5-4 8-8 8z m101-114l-25 0 0 132c0 5-3 8-8 8-4 0-8-3-8-8l0-132-25 0c-4 0-8-3-8-8l0-95c0-4 4-8 8-8l25 0 0-34c0-4 4-7 8-7 5 0 8 3 8 7l0 34 25 0c4 0 8 4 8 8l0 95c0 5-4 8-8 8z"/>
<glyph glyph-name="v6-icons-05" unicode="&#57351;" d="M376 268l-102 0 11 17c5 8 3 19-5 25-8 5-19 3-25-5l-29-44c0 0 0-1-1-1 0-1-1-2-1-2 0-1 0-1-1-3 0-1 0-1 0-2 0 0 0-1 0-1 0 0 0-1 0-1 0-1 0-1 0-2 0-1 0-1 1-3 0-1 1-2 1-2 0 0 0-1 0-1l24-40c3-5 9-9 14-9 4 0 6 2 9 3 8 4 12 15 6 23l-8 14 105 0c10 0 18 8 18 18 0 10-6 16-17 16z m-64-79c-10 0-18-8-18-18l0-7-140 0 0 184 140 0 0-26c0-10 8-18 18-18 10 0 18 8 18 18l0 41c0 11-9 20-20 20l-172 0c-11 0-20-9-20-20l0-215c0-11 9-20 20-20l171 0c11 0 20 9 20 20l0 23c0 10-8 18-17 18z"/>
<glyph glyph-name="v6-icons-18" unicode="&#57352;" d="M379 183l-155 0c-10 0-18-8-18-18 0-10 8-18 18-18l156 0c10 0 18 8 18 18 0 10-9 18-19 18z m0 91l-155 0c-10 0-18-8-18-19 0-10 8-18 18-18l156 0c10 0 18 8 18 18-1 11-9 19-19 19z m-155 54l156 0c10 0 18 8 18 18 0 10-8 18-18 18l-156 0c-10 0-18-8-18-18 0-10 8-18 18-18z m-67-145l-24 0c-10 0-18-8-18-18 0-10 8-18 18-18l24 0c10 0 18 8 18 18 0 10-8 18-18 18z m0 91l-24 0c-10 0-18-8-18-19 0-10 8-18 18-18l24 0c10 0 18 8 18 18 0 11-8 19-18 19z m0 90l-24 0c-10 0-18-8-18-18 0-10 8-18 18-18l24 0c10 0 18 8 18 18 0 10-8 18-18 18z"/>
<glyph glyph-name="v6-icons-19" unicode="&#57353;" d="M381 148l-250 0c-10 0-18 8-18 18 0 10 8 18 18 18l250 0c10 0 18-8 18-18 0-10-8-18-18-18z m0 90l-250 0c-10 0-18 8-18 19 0 10 8 18 18 18l250 0c10 0 18-8 18-18-1-11-8-19-18-19z m0 90l-250 0c-10 0-18 8-18 18 0 10 8 18 18 18l250 0c10 0 18-8 18-18-1-10-8-18-18-18z"/>
<glyph glyph-name="v6-icons-15" unicode="&#57355;" d="M321 333c-6 0-10-4-10-10l0-69c0-5 4-10 10-10l69 0c6 0 10 5 10 10 0 44-35 79-79 79z m58-69l-48 0 0 48c25-5 43-23 48-48z m-22-31l-59 0 0 59c0 5-4 10-10 10-43 0-79-35-79-79 0-43 35-79 79-79 44 0 79 35 79 79 0 5-4 10-10 10z m-68-68c-31 0-58 26-58 59 0 28 20 52 48 57l0-57c0-6 5-10 10-10l58 0c-6-29-29-49-58-49z m-96 26l-60 0 0 156 107 0 0-28c0-6 4-10 10-10 5 0 10 4 10 10l0 37c0 7-6 11-11 11l-125 0c-6 0-11-5-11-11l0-173c0-7 6-11 11-11l69 0c6 0 10 4 10 10 0 4-4 9-10 9z"/>
<glyph glyph-name="v6-icons-16" unicode="&#57356;" d="M324 194c6 0 9 5 9 9 0 3-1 5-2 7l-100 172c-4 6-14 6-17 0l-102-173c-2-3-2-7 0-10 2-3 4-5 8-5z m-185 20l85 144 83-144z m239 70c-17 20-41 32-68 35-6 0-10-4-10-9 0-6 3-10 9-10 21-3 41-13 55-29 14-16 19-36 17-56-5-43-43-75-87-70-24 2-45 14-59 34-3 4-9 5-13 2-5-4-6-9-3-14 17-23 43-39 73-42 3 0 5 0 9 0 51 0 93 38 99 89 2 24-6 49-22 70z"/>
<glyph glyph-name="v6-icons-17" unicode="&#57357;" d="M400 176c0 74-61 214-143 214-83 0-144-141-144-215 0-24 44-35 80-39 0 0 1 0 1 0 6 0 11 3 11 9 1 5-4 11-9 12-40 6-58 15-61 18 5 8 49 23 122 23 72 0 115-14 122-23-4-4-22-13-61-18-6-1-11-6-9-12 1-6 5-11 12-9 35 5 79 15 79 40z m-143 43c-37 0-91-4-121-18 11 73 64 169 121 169 56 0 109-96 121-169-32 14-85 18-121 18z m21-31c-6 0-10-5-10-11 0-22-9-36-11-36-4 0-12 13-12 36 0 6-4 11-10 11-6 0-10-5-10-11 0-32 13-56 33-56 19 0 32 24 32 56-1 6-6 11-12 11z"/>
<glyph glyph-name="save-3" unicode="&#57354;" d="M316 316l-59 0c-4 0-7-3-7-7l0-58-21 21c-3 3-7 3-9 0-3-2-3-6 0-9l32-32c1-1 3-2 5-2 1 0 3 1 4 2l33 32c2 3 2 7 0 9-3 3-7 3-10 0l-21-21 0 52 47 0 0-99-109 0 0 102c0 3-3 6-7 6-3 0-6-3-6-6l0-108c0-4 3-7 6-7l122 0c4 0 7 3 7 7l0 111c0 4-3 7-7 7"/>
<glyph glyph-name="save-2" unicode="&#57358;" d="M479 489l-226 0c-9 0-17-8-17-18l0-237-92 92c-7 7-18 7-25 0-7-7-7-18 0-24l122-122c4-4 8-5 13-5 4 0 9 1 12 5l122 122c7 6 7 17 0 24-7 7-18 7-25 0l-92-92 0 220 190 0 0-387-426 0 0 391c0 9-8 17-18 17-9 0-17-8-17-17l0-408c0-10 8-18 17-18l462 0c9 0 17 8 17 18l0 421c0 10-8 18-17 18"/>
<glyph glyph-name="direct-url" unicode="&#57359;" d="M480 146c0-28-22-50-50-50l-340 0c-28 0-50 22-50 50l0 223c0 28 22 50 50 50l340 0c28 0 50-22 50-50z m-50 313l-340 0c-50 0-90-41-90-90l0-223c0-49 40-90 90-90l340 0c50 0 90 41 90 90l0 223c0 49-40 90-90 90z m-266-108c11 0 20-9 20-19 0-11-9-20-20-20l-57 0c-11 0-20 9-20 20 0 10 9 19 20 19z m249 0c11 0 20-9 20-19 0-11-9-20-20-20l-177 0c-11 0-20 9-20 20 0 10 9 19 20 19z m-249-74c11 0 20-9 20-20 0-10-9-19-20-19l-57 0c-11 0-20 9-20 19 0 11 9 20 20 20z m249 0c11 0 20-9 20-20 0-10-9-19-20-19l-177 0c-11 0-20 9-20 19 0 11 9 20 20 20z m-249-74c11 0 20-9 20-20 0-11-9-19-20-19l-57 0c-11 0-20 8-20 19 0 11 9 20 20 20z m249 0c11 0 20-9 20-20 0-11-9-19-20-19l-177 0c-11 0-20 8-20 19 0 11 9 20 20 20z"/>
<glyph glyph-name="cached-url" unicode="&#57360;" d="M426 347c0-10-8-19-19-19l-150 0c-11 0-20 9-20 19 0 11 9 20 20 20l150 0c11 0 19-9 19-20z m-19-154c11 0 19-9 19-19 0-11-8-20-19-20l-150 0c-11 0-20 9-20 20 0 10 9 19 20 19z m0-90l-301 0c-37 0-67 30-67 68 0 37 30 67 67 67l301 0c37 0 67-30 67-67 0-38-30-68-67-68m-368 241c0 37 30 68 67 68l301 0c37 0 67-31 67-68 0-37-30-67-67-67l-301 0c-37 0-67 30-67 67m429-87c28 20 46 51 46 87 0 59-48 107-107 107l-301 0c-58 0-106-48-106-107 0-36 18-67 45-87-27-19-45-51-45-86 0-59 48-107 106-107l301 0c59 0 107 48 107 107 0 35-18 67-46 86"/>
<glyph glyph-name="url-97" unicode="&#57361;" d="M114 223c-45 0-82 36-82 81 0 46 36 81 82 81l135 0c45 0 82-36 82-82 0-45-36-81-82-81l-28 0c-9 0-16-8-16-16 0-9 7-16 16-16l28 0c63 0 114 51 114 113 0 63-51 114-114 114l-135 0c-63 0-114-51-114-114 0-62 51-113 114-113 8 0 16 7 16 16-1 9-8 17-16 17z m284 103c-8 0-16-7-16-16 0-8 8-16 16-16 45 0 82-36 82-82 0-44-36-81-82-81l-135 0c-45 0-82 36-82 81 0 45 36 82 82 82l28 0c9 0 16 8 16 16 0 9-7 16-16 16l-28 0c-63 0-114-51-114-114 0-62 51-113 114-113l135 0c63 0 114 51 114 113 0 63-51 114-114 114z"/>
<glyph glyph-name="flag" unicode="&#57362;" d="M424 189c0 0 1 0 1 1 0 1 0 1 1 2 0 1 0 1 0 2 0 1 0 1 0 1 0 0 0 1 0 1l0 194c0 0 0 1 0 1 0 1 0 1 0 2 0 0 0 0 0 1 0 1 0 1-1 2 0 1 0 1-1 2 0 1-1 1-1 1 0 1-1 1-1 2 0 0 0 0 0 1 0 0 0 0 0 1 0 1-1 1-1 1 0 0-1 0-1 0-1 0-1 1-2 1-1 0-1 1-2 1 0 0 0 1-1 1-1 0-1 0-2 1-1 0-1 0-2 0-1 0-1 0-1 0 0 0-1 0-1 0 0 0-1 0-1 0-1 0-1 0-2 0-1 0-1 0-2 0 0 0 0 0-1-1-1 0-1 0-2-1-1 0-1-1-2-1 0 0 0-1-1-1 0 0 0 0-1 0-17-13-45-17-74-11-19 5-38 13-58 22-9 3-18 7-26 11-21 7-41 14-62 19-13 3-26 6-40 5-18-2-33-10-42-22l-5-10c-2-3-4-7-4-11l0-325c0-9 8-17 17-17 10 0 17 8 17 17l0 125c2 1 3 3 5 4 3 4 10 7 18 8 8 1 17-1 29-3 19-4 39-11 57-18 8-3 16-7 24-10 20-9 41-18 64-23 12-3 23-5 35-5 26 0 49 8 67 22 0 0 1 1 1 1 0 0 0 0 1 0 1 0 1 1 1 2 0 0 1 1 1 1 0 1 1 1 1 2 0 0 0 1 0 1z m-100 9c-19 4-38 13-59 21-8 4-17 8-25 11-21 8-41 15-63 20-12 3-26 5-40 4-6-1-12-2-18-4l0 150 2 4c0 0 1 0 1 1 3 5 10 8 18 9 8 1 18-1 29-4 20-4 39-11 57-17 9-4 16-7 24-11 21-9 42-18 65-23 27-6 53-5 75 3l0-157c-15-10-39-13-66-7z"/>
</font>
</defs>
</svg>
